<svg width="191" height="27" viewBox="0 0 191 27" fill="none" xmlns="http://www.w3.org/2000/svg">
<path d="M0.96875 2.78125H10.0156L10 26H0.96875V2.78125ZM13.0469 10.5156H21.9219L25.625 20.5781L29.2031 10.5156H32.7031L26.9375 26H23.6875V25.9844H19.2812L13.0469 10.5156ZM34.1094 21.125C34.1094 20.375 34.276 19.6771 34.6094 19.0312C34.9427 18.3854 35.4219 17.8229 36.0469 17.3438C36.6719 16.8646 37.4271 16.4896 38.3125 16.2188C39.1979 15.9375 40.1875 15.7969 41.2812 15.7969C42.375 15.7969 43.3958 15.9271 44.3438 16.1875C45.3021 16.4375 46.1042 16.7604 46.75 17.1562V17.0312C46.75 16.3021 46.6667 15.6823 46.5 15.1719C46.3438 14.6615 46.099 14.2448 45.7656 13.9219C45.4323 13.599 45.0052 13.3646 44.4844 13.2188C43.974 13.0729 43.3698 13 42.6719 13C42.0365 13 41.3802 13.0573 40.7031 13.1719C40.026 13.276 39.401 13.4323 38.8281 13.6406L37.6875 11.5312C38.8229 11.0625 39.9948 10.7292 41.2031 10.5312C42.4219 10.3229 43.6771 10.2188 44.9688 10.2188C46.625 10.2188 48.0885 10.3802 49.3594 10.7031C50.6406 11.0156 51.7135 11.4896 52.5781 12.125C53.4531 12.75 54.1146 13.5417 54.5625 14.5C55.0104 15.4479 55.2344 16.5625 55.2344 17.8438V26H47.3125L46.7812 24.5C46.4688 24.7396 46.099 24.9688 45.6719 25.1875C45.2448 25.4062 44.776 25.599 44.2656 25.7656C43.7552 25.9323 43.2135 26.0625 42.6406 26.1562C42.0677 26.25 41.4688 26.2969 40.8438 26.2969C39.8229 26.2969 38.8958 26.1667 38.0625 25.9062C37.2396 25.6354 36.5365 25.2708 35.9531 24.8125C35.3698 24.3542 34.9167 23.8125 34.5938 23.1875C34.2708 22.5521 34.1094 21.8646 34.1094 21.125ZM42.8594 20.7969C42.8594 21.3594 43.0417 21.8177 43.4062 22.1719C43.7708 22.5156 44.2604 22.6875 44.875 22.6875C45.2083 22.6875 45.5365 22.6354 45.8594 22.5312C46.1823 22.4167 46.4792 22.25 46.75 22.0312V19.3906C46.2292 19.0781 45.6562 18.9219 45.0312 18.9219C44.3229 18.9219 43.7812 19.099 43.4062 19.4531C43.0417 19.7969 42.8594 20.2448 42.8594 20.7969ZM58.4531 18.2656C58.4531 17.0469 58.6615 15.9427 59.0781 14.9531C59.5052 13.9635 60.1146 13.1198 60.9062 12.4219C61.6979 11.7135 62.6562 11.1719 63.7812 10.7969C64.9167 10.4115 66.1875 10.2188 67.5938 10.2188C68.6667 10.2188 69.6302 10.349 70.4844 10.6094C71.3385 10.8594 72.0729 11.1927 72.6875 11.6094V0.203125H81.1719V26H73.3594L72.7188 24.0625C72.4271 24.3438 72.0781 24.6198 71.6719 24.8906C71.2656 25.1615 70.8177 25.401 70.3281 25.6094C69.8385 25.8177 69.3073 25.9844 68.7344 26.1094C68.1719 26.2344 67.5781 26.2969 66.9531 26.2969C65.776 26.2969 64.6719 26.125 63.6406 25.7812C62.6094 25.4375 61.7083 24.9323 60.9375 24.2656C60.1667 23.5885 59.5573 22.75 59.1094 21.75C58.6719 20.7396 58.4531 19.5781 58.4531 18.2656ZM67.2031 17.9688C67.2031 18.8646 67.2865 19.6302 67.4531 20.2656C67.6302 20.901 67.8698 21.4219 68.1719 21.8281C68.474 22.224 68.8333 22.5156 69.25 22.7031C69.6667 22.8906 70.125 22.9844 70.625 22.9844C71.0208 22.9844 71.3906 22.9167 71.7344 22.7812C72.0885 22.6354 72.4062 22.4531 72.6875 22.2344V13.6719C72.4271 13.4427 72.1302 13.2656 71.7969 13.1406C71.474 13.0156 71.1562 12.9531 70.8438 12.9531C70.3229 12.9531 69.8385 13.0521 69.3906 13.25C68.9531 13.4375 68.5677 13.7344 68.2344 14.1406C67.9115 14.5469 67.6562 15.0677 67.4688 15.7031C67.2917 16.3281 67.2031 17.0833 67.2031 17.9688Z" fill="#505050"/>
<path d="M94.7031 14.4062C94.7031 13.3021 94.8438 12.2396 95.125 11.2188C95.4167 10.1875 95.8385 9.22917 96.3906 8.34375C96.9427 7.45833 97.6198 6.65104 98.4219 5.92188C99.224 5.19271 100.135 4.56771 101.156 4.04688C102.188 3.52604 103.323 3.125 104.562 2.84375C105.802 2.55208 107.135 2.40625 108.562 2.40625C109.479 2.40625 110.354 2.46354 111.188 2.57812C112.031 2.69271 112.823 2.85417 113.562 3.0625C114.302 3.26042 114.984 3.49479 115.609 3.76562C116.245 4.02604 116.818 4.30208 117.328 4.59375L115.984 7.21875C115.401 6.9375 114.734 6.70312 113.984 6.51562C113.245 6.31771 112.474 6.21875 111.672 6.21875C110.599 6.21875 109.604 6.41146 108.688 6.79688C107.771 7.18229 106.979 7.72917 106.312 8.4375C105.646 9.14583 105.12 10.0052 104.734 11.0156C104.359 12.0156 104.172 13.1406 104.172 14.3906C104.172 15.6302 104.359 16.7552 104.734 17.7656C105.109 18.7656 105.625 19.625 106.281 20.3438C106.948 21.0521 107.734 21.6042 108.641 22C109.557 22.3854 110.547 22.5781 111.609 22.5781C112.359 22.5781 113.109 22.4896 113.859 22.3125C114.609 22.125 115.297 21.8802 115.922 21.5781L117.266 24.2031C116.755 24.5052 116.188 24.7865 115.562 25.0469C114.938 25.3073 114.26 25.5417 113.531 25.75C112.802 25.9479 112.021 26.1042 111.188 26.2188C110.354 26.3333 109.479 26.3906 108.562 26.3906C106.427 26.3906 104.5 26.0781 102.781 25.4531C101.073 24.8177 99.6198 23.9583 98.4219 22.875C97.224 21.7812 96.3021 20.5104 95.6562 19.0625C95.0208 17.6042 94.7031 16.0521 94.7031 14.4062ZM119.141 18.2656C119.141 17.0365 119.391 15.9271 119.891 14.9375C120.401 13.9479 121.13 13.1042 122.078 12.4062C123.036 11.7083 124.203 11.1719 125.578 10.7969C126.953 10.4115 128.516 10.2188 130.266 10.2188C132.016 10.2188 133.578 10.4115 134.953 10.7969C136.328 11.1719 137.49 11.7083 138.438 12.4062C139.396 13.1042 140.125 13.9479 140.625 14.9375C141.135 15.9271 141.391 17.0365 141.391 18.2656C141.391 19.4844 141.135 20.5885 140.625 21.5781C140.125 22.5677 139.396 23.4115 138.438 24.1094C137.49 24.8073 136.328 25.349 134.953 25.7344C133.578 26.1094 132.016 26.2969 130.266 26.2969C128.516 26.2969 126.953 26.1094 125.578 25.7344C124.203 25.349 123.036 24.8073 122.078 24.1094C121.13 23.4115 120.401 22.5677 119.891 21.5781C119.391 20.5885 119.141 19.4844 119.141 18.2656ZM130.266 23.4375C130.651 23.4375 130.995 23.3594 131.297 23.2031C131.599 23.0469 131.849 22.776 132.047 22.3906C132.245 21.9948 132.396 21.4635 132.5 20.7969C132.604 20.1302 132.656 19.2865 132.656 18.2656C132.656 17.2344 132.604 16.3854 132.5 15.7188C132.396 15.0521 132.245 14.526 132.047 14.1406C131.849 13.7448 131.599 13.4688 131.297 13.3125C130.995 13.1562 130.651 13.0781 130.266 13.0781C129.87 13.0781 129.521 13.1562 129.219 13.3125C128.927 13.4688 128.682 13.7448 128.484 14.1406C128.286 14.526 128.135 15.0521 128.031 15.7188C127.927 16.3854 127.875 17.2344 127.875 18.2656C127.875 19.2865 127.927 20.1302 128.031 20.7969C128.135 21.4635 128.286 21.9948 128.484 22.3906C128.682 22.776 128.927 23.0469 129.219 23.2031C129.521 23.3594 129.87 23.4375 130.266 23.4375ZM143.734 18.2656C143.734 17.0469 143.943 15.9427 144.359 14.9531C144.786 13.9635 145.396 13.1198 146.188 12.4219C146.979 11.7135 147.938 11.1719 149.062 10.7969C150.198 10.4115 151.469 10.2188 152.875 10.2188C153.948 10.2188 154.911 10.349 155.766 10.6094C156.62 10.8594 157.354 11.1927 157.969 11.6094V0.203125H166.453V26H158.641L158 24.0625C157.708 24.3438 157.359 24.6198 156.953 24.8906C156.547 25.1615 156.099 25.401 155.609 25.6094C155.12 25.8177 154.589 25.9844 154.016 26.1094C153.453 26.2344 152.859 26.2969 152.234 26.2969C151.057 26.2969 149.953 26.125 148.922 25.7812C147.891 25.4375 146.99 24.9323 146.219 24.2656C145.448 23.5885 144.839 22.75 144.391 21.75C143.953 20.7396 143.734 19.5781 143.734 18.2656ZM152.484 17.9688C152.484 18.8646 152.568 19.6302 152.734 20.2656C152.911 20.901 153.151 21.4219 153.453 21.8281C153.755 22.224 154.115 22.5156 154.531 22.7031C154.948 22.8906 155.406 22.9844 155.906 22.9844C156.302 22.9844 156.672 22.9167 157.016 22.7812C157.37 22.6354 157.688 22.4531 157.969 22.2344V13.6719C157.708 13.4427 157.411 13.2656 157.078 13.1406C156.755 13.0156 156.438 12.9531 156.125 12.9531C155.604 12.9531 155.12 13.0521 154.672 13.25C154.234 13.4375 153.849 13.7344 153.516 14.1406C153.193 14.5469 152.938 15.0677 152.75 15.7031C152.573 16.3281 152.484 17.0833 152.484 17.9688ZM169.828 18.1719C169.828 17.276 169.969 16.4583 170.25 15.7188C170.531 14.9792 170.917 14.3177 171.406 13.7344C171.906 13.1406 172.495 12.625 173.172 12.1875C173.849 11.75 174.583 11.3854 175.375 11.0938C176.167 10.8021 176.995 10.5833 177.859 10.4375C178.724 10.2917 179.599 10.2188 180.484 10.2188C181.651 10.2188 182.708 10.3385 183.656 10.5781C184.615 10.8073 185.464 11.125 186.203 11.5312C186.953 11.9375 187.599 12.4115 188.141 12.9531C188.693 13.4948 189.146 14.0729 189.5 14.6875C189.865 15.2917 190.13 15.9167 190.297 16.5625C190.474 17.2083 190.562 17.8385 190.562 18.4531L178.75 19.875C178.979 21.0312 179.438 21.9271 180.125 22.5625C180.812 23.1979 181.776 23.5156 183.016 23.5156C183.693 23.5156 184.323 23.4323 184.906 23.2656C185.5 23.099 185.964 22.8958 186.297 22.6562L187.547 24.8438C187.161 25.0417 186.74 25.2292 186.281 25.4062C185.833 25.5833 185.333 25.7396 184.781 25.875C184.24 26 183.635 26.099 182.969 26.1719C182.312 26.2552 181.589 26.2969 180.797 26.2969C178.901 26.2969 177.266 26.0781 175.891 25.6406C174.516 25.1927 173.375 24.599 172.469 23.8594C171.573 23.1094 170.906 22.2448 170.469 21.2656C170.042 20.2865 169.828 19.2552 169.828 18.1719ZM182.984 16.8594C182.984 15.5052 182.812 14.5208 182.469 13.9062C182.135 13.2917 181.635 12.9844 180.969 12.9844C180.625 12.9844 180.307 13.0677 180.016 13.2344C179.724 13.401 179.474 13.6615 179.266 14.0156C179.057 14.3698 178.891 14.8281 178.766 15.3906C178.641 15.9427 178.573 16.6146 178.562 17.4062L182.984 16.8594Z" fill="#FF8080"/>
</svg>
